<?xml version="1.0" encoding="UTF-8" standalone="no"?>
<svg
   xmlns:dc="http://purl.org/dc/elements/1.1/"
   xmlns:cc="http://creativecommons.org/ns#"
   xmlns:rdf="http://www.w3.org/1999/02/22-rdf-syntax-ns#"
   xmlns:svg="http://www.w3.org/2000/svg"
   xmlns="http://www.w3.org/2000/svg"
   xmlns:sodipodi="http://sodipodi.sourceforge.net/DTD/sodipodi-0.dtd"
   xmlns:inkscape="http://www.inkscape.org/namespaces/inkscape"
   viewBox="0 0 10 7"
   version="1.1"
   id="svg12"
   sodipodi:docname="Logo rounded minimum color.svg"
   inkscape:version="1.0.1 (3bc2e813f5, 2020-09-07)"
   width="10"
   height="7">
  <metadata
     id="metadata18">
    <rdf:RDF>
      <cc:Work
         rdf:about="">
        <dc:format>image/svg+xml</dc:format>
        <dc:type
           rdf:resource="http://purl.org/dc/dcmitype/StillImage" />
        <dc:title></dc:title>
      </cc:Work>
    </rdf:RDF>
  </metadata>
  <defs
     id="defs16" />
  <sodipodi:namedview
     pagecolor="#ffffff"
     bordercolor="#666666"
     borderopacity="1"
     objecttolerance="10"
     gridtolerance="10"
     guidetolerance="10"
     inkscape:pageopacity="0"
     inkscape:pageshadow="2"
     inkscape:window-width="2560"
     inkscape:window-height="1369"
     id="namedview14"
     showgrid="false"
     inkscape:zoom="64"
     inkscape:cx="9.0707475"
     inkscape:cy="2.4587045"
     inkscape:window-x="-8"
     inkscape:window-y="-8"
     inkscape:window-maximized="1"
     inkscape:current-layer="g10"
     inkscape:document-rotation="0" />
  <g
     inkscape:groupmode="layer"
     id="layer3"
     inkscape:label="Layer 1"
     style="display:inline">
    <g
       style="display:inline;fill:#000000;fill-opacity:1"
       id="g10">
      <path
         style="display:inline;opacity:1;fill:#000000;fill-opacity:1;stroke:none;stroke-width:0.016556;stroke-linecap:butt;stroke-linejoin:miter;stroke-miterlimit:4;stroke-dasharray:none;stroke-opacity:1"
         d="m 1.7778996,1.7832737 0.3744147,0.2121027 c 0.062542,0.041021 0.00376,0.077575 -0.055445,0.1016902 -0.2236497,0.1206684 -0.8934326,0.4719163 -1.15443988,0.6024937 -0.0714169,0.016173 -0.0196612,0.083471 -0.0210876,0.089527 L 3.2120802,4.0334385 c -0.3166291,0.6417998 -0.3441766,1.3114874 0,2.0061937 L 0.30800965,4.4729626 C 0.27081626,4.4480403 0.25817769,4.439025 0.22600517,4.3913413 0.01816543,3.9647586 -0.1469342,3.3763144 0.20482499,2.6107326 0.24749889,2.5523116 0.26193269,2.5287796 0.32910148,2.4722295 L 1.58556,1.7930627 c 0.072483,-0.038835 0.1269481,-0.045412 0.1923396,-0.00979 z"
         id="path2"
         sodipodi:nodetypes="ccccccccccccc" />
      <path
         id="path4"
         style="fill:#000000;fill-opacity:1;stroke:none;stroke-width:0.016556;stroke-linecap:butt;stroke-linejoin:miter;stroke-miterlimit:4;stroke-dasharray:none;stroke-opacity:1"
         d="m 8.1211746,1.6957678 v 0.5644531 l 0.8144531,0.4453125 c 0.045945,0.036807 0.045178,0.054372 0.00781,0.082031 L 5.0547684,4.9047521 c -0.093633,0.054681 -0.1672371,0.041656 -0.2441407,-0.00391 L 3.6992996,4.2875647 c -0.3576495,0.5491524 -0.3935762,1.3005531 0.00977,2.015625 l 1.2226563,0.6386718 c 0.067621,0.022064 0.1065687,0.024142 0.1699219,-0.00586 0,0 0.2020164,-0.1066341 0.3359374,-0.1835937 L 9.8418777,4.3598303 c 0.034187,-0.020115 0.042879,-0.040718 0.00781,-0.072266 L 8.986409,3.730924 v 0.4472657 c -0.00111,0.081915 -0.01187,0.093841 -0.058594,0.1210937 L 5.1719558,6.402799 C 5.1556164,6.3681611 5.1303171,6.3299554 5.1211746,6.2992834 5.0808632,6.1640439 5.054331,5.8182266 5.127034,5.5531897 5.1649978,5.4436523 5.1743755,5.4000027 5.2598465,5.3500647 l 4.5976562,-2.5625 c 0,0 0.08044,-0.026879 0.00781,-0.1171876 z" />
      <path
         style="display:inline;fill:#000000;fill-opacity:1;stroke:none;stroke-width:0.016556;stroke-linecap:butt;stroke-linejoin:miter;stroke-miterlimit:4;stroke-dasharray:none;stroke-opacity:1"
         d="M 6.6011965,3.5066302 C 6.3713974,3.6400632 5.3276187,4.2062729 5.0268925,4.3692171 4.9587682,4.4073161 4.9230192,4.4057622 4.8466633,4.3603941 4.5370308,4.1947778 3.2894464,3.5018632 3.2894464,3.5018632 c -0.060925,-0.045918 -0.08416,-0.04678 -0.087068,-0.155494 l -0.00387,-0.6955955 c 6.414e-4,-0.061882 0.041357,-0.062513 0.091261,-0.03634 l 1.539037,0.8399993 c 0.07576,0.044815 0.1206032,0.042737 0.1957281,-3.153e-4 0,0 1.3132317,-0.7136671 1.5640846,-0.8563567 0.045452,-0.02145 0.064778,-0.025494 0.063088,0.025422 0.00451,0.1555699 7.717e-4,0.5979786 -0.00101,0.7777622 0.00849,0.077501 -0.00555,0.078574 -0.049497,0.1056854 z"
         id="path6"
         sodipodi:nodetypes="cccccccccccccc" />
      <path
         id="path8"
         style="display:inline;fill:#000000;fill-opacity:1;stroke:none;stroke-width:0.016556;stroke-linecap:butt;stroke-linejoin:miter;stroke-miterlimit:4;stroke-dasharray:none;stroke-opacity:1"
         d="m 7.1471287,1.735535 c -1.885e-4,-1.915e-4 -3.79e-4,-3.43e-4 -5.715e-4,-4.543e-4 -0.031849,-0.018404 -2.1317358,1.148444 -2.1317358,1.148444 -0.060872,0.025978 -0.097208,0.032851 -0.1668021,0.00699 L 2.3012767,1.494431 C 2.2549937,1.457607 2.2708147,1.430054 2.3140937,1.404101 L 4.8448172,0.02599856 c 0.07459,-0.041138 0.1243167,-0.031553 0.2013427,0.01534 0,0 2.5460633,1.38124674 2.5775984,1.42105584 1.899e-4,2.397e-4 3.778e-4,5.179e-4 5.637e-4,8.343e-4"
         sodipodi:nodetypes="ccccccccsc" />
      <path
         id="path839"
         style="display:inline;fill:#32a189;fill-opacity:1;stroke:none;stroke-width:0.017;stroke-linecap:butt;stroke-linejoin:miter;stroke-miterlimit:4;stroke-dasharray:none;stroke-opacity:1"
         d="m 7.6243223,1.4632285 -5.264e-4,1.3907419 c 0.00602,0.1084605 0.00201,0.093227 -0.063615,0.132196 L 7.2177396,3.1678698 c -0.046113,0.017169 -0.063938,-0.00849 -0.071146,-0.056089 l 5.35e-4,-1.3762461"
         sodipodi:nodetypes="cccccc" />
    </g>
  </g>
  <g
     inkscape:groupmode="layer"
     id="layer2"
     inkscape:label="Layer 2"
     style="display:inline" />
</svg>
